<?xml version="1.0" encoding="utf-8"?>
<!-- Generator: Adobe Illustrator 20.0.0, SVG Export Plug-In . SVG Version: 6.00 Build 0)  -->
<svg version="1.1" id="Layer_1" xmlns="http://www.w3.org/2000/svg" xmlns:xlink="http://www.w3.org/1999/xlink" x="0px" y="0px"
	 viewBox="0 0 24 19" style="enable-background:new 0 0 24 19;" xml:space="preserve">
<path d="M17,9.6V7.4c-1.2-0.4-1.9-0.5-2.3-1.4c-0.4-0.9,0.1-1.5,0.6-2.6l-1.6-1.6c-1.1,0.5-1.7,1-2.6,0.6c-0.9-0.4-1-1.1-1.4-2.3
	H7.4C6.9,1.2,6.8,1.9,5.9,2.3h0C5,2.7,4.4,2.2,3.3,1.7L1.7,3.3c0.5,1.1,1,1.7,0.6,2.6C1.9,6.8,1.2,6.9,0,7.4v2.3
	c1.2,0.4,1.9,0.5,2.3,1.4c0.4,0.9-0.1,1.5-0.6,2.6l1.6,1.6c1.1-0.5,1.7-1,2.6-0.6h0c0.9,0.4,1,1.1,1.4,2.3h2.3
	c0.4-1.2,0.5-1.9,1.4-2.3h0c0.9-0.4,1.5,0.1,2.6,0.6l1.6-1.6c-0.5-1.1-1-1.7-0.6-2.6C15.1,10.2,15.8,10.1,17,9.6z M8.5,11.3
	c-1.6,0-2.8-1.3-2.8-2.8s1.3-2.8,2.8-2.8s2.8,1.3,2.8,2.8S10.1,11.3,8.5,11.3z M24,15.5v-1.1c-0.5-0.2-0.9-0.3-1.1-0.7
	c-0.2-0.4,0-0.7,0.3-1.2l-0.8-0.8c-0.5,0.2-0.8,0.5-1.2,0.3s-0.5-0.5-0.7-1.1h-1.1c-0.2,0.5-0.2,0.9-0.7,1.1s-0.7,0-1.2-0.3
	l-0.8,0.8c0.2,0.5,0.5,0.8,0.3,1.2c-0.2,0.4-0.5,0.5-1.1,0.7v1.1c0.5,0.2,0.9,0.2,1.1,0.7c0.2,0.4,0,0.7-0.3,1.2l0.8,0.8
	c0.5-0.2,0.8-0.5,1.2-0.3c0.4,0.2,0.5,0.5,0.7,1.1h1.1c0.2-0.5,0.2-0.9,0.7-1.1h0c0.4-0.2,0.7,0,1.2,0.3l0.8-0.8
	c-0.2-0.5-0.5-0.8-0.3-1.2C23.1,15.8,23.5,15.7,24,15.5z M20,16.3c-0.7,0-1.3-0.6-1.3-1.3s0.6-1.3,1.3-1.3s1.3,0.6,1.3,1.3
	S20.7,16.3,20,16.3z"/>
</svg>
